<svg xmlns="http://www.w3.org/2000/svg" xmlns:xlink="http://www.w3.org/1999/xlink" id="Capa_1" x="0" y="0" enable-background="new 0 0 512 512" version="1.1" viewBox="0 0 512 512" xml:space="preserve"><circle cx="256" cy="256" r="256" fill="#54FBFF"/><path fill="#00B7BE" d="M512,256c0-14.262-1.186-28.245-3.428-41.872L365.448,71.004H258.641l-53.404,92.498H98.412	L45.008,256l53.404,92.498L261.84,511.926C400.527,508.821,512,395.432,512,256z"/><polygon fill="#FF127F" points="98.412 348.498 45.008 256 98.412 163.502 205.219 163.502 258.623 256 205.219 348.498"/><polygon fill="#B10853" points="258.623 256 205.225 348.495 151.815 348.495 151.815 163.505 205.225 163.505"/><polygon fill="#FF9A00" points="258.641 256 205.237 163.502 258.641 71.004 365.448 71.004 418.852 163.502 365.448 256"/><polygon fill="#E67500" points="418.85 163.505 365.452 256 312.043 256 312.043 71 365.452 71"/><polygon fill="#4A5BE5" points="258.641 440.996 205.237 348.498 258.641 256 365.448 256 418.852 348.498 365.448 440.996"/><polygon fill="#1C2EDE" points="418.85 348.495 365.452 441 312.043 441 312.043 256 365.452 256"/></svg>